<?xml version="1.0" standalone="no"?>
<!DOCTYPE svg PUBLIC "-//W3C//DTD SVG 20010904//EN"
 "http://www.w3.org/TR/2001/REC-SVG-20010904/DTD/svg10.dtd">
<svg version="1.0" xmlns="http://www.w3.org/2000/svg"
 width="500.000000pt" height="500.000000pt" viewBox="0 0 500.000000 500.000000"
 preserveAspectRatio="xMidYMid meet">

<g transform="translate(0.000000,500.000000) scale(0.100000,-0.100000)"
fill="#000000" stroke="none">
<path d="M733 3803 c3 -10 22 -56 42 -103 20 -47 57 -136 83 -197 l46 -113
107 0 107 0 45 -82 45 -82 -49 -26 c-195 -100 -297 -285 -268 -488 20 -139 98
-253 217 -315 103 -55 176 -62 320 -31 l32 7 0 -597 0 -596 60 0 60 0 1 633
c1 347 1 635 0 639 0 4 13 35 31 68 40 76 51 200 24 264 -9 21 -16 45 -16 52
0 12 140 14 886 14 840 0 886 -1 879 -17 -47 -111 -43 -234 10 -315 l25 -38 0
-650 0 -650 60 0 60 0 0 595 c0 327 3 595 8 595 4 0 40 -7 80 -15 131 -28 257
11 361 110 144 137 173 368 68 544 -40 67 -134 153 -204 187 -29 15 -53 30
-53 35 0 6 19 43 43 84 l42 74 108 3 108 3 19 45 c11 25 49 115 85 200 36 84
65 160 65 167 0 11 -325 13 -1771 13 -1682 0 -1771 -1 -1766 -17z m3355 -121
c-1 -5 -18 -45 -37 -90 l-35 -82 -1513 0 -1514 0 -30 66 c-16 37 -32 77 -35
90 l-6 24 1587 0 c873 0 1585 -4 1583 -8z m-349 -299 c0 -5 -17 -35 -38 -68
l-38 -60 -1160 -3 -1160 -2 -37 59 c-20 32 -36 64 -36 70 0 8 344 11 1235 11
679 0 1235 -3 1234 -7z m-60 -263 c124 -18 234 -98 289 -210 35 -72 38 -190 6
-260 -81 -176 -307 -237 -432 -117 -49 47 -62 78 -62 149 0 105 49 158 145
158 38 0 52 -5 76 -29 16 -16 29 -39 29 -50 0 -25 -33 -61 -57 -61 -46 0 -70
-71 -36 -105 23 -23 100 -15 142 14 68 49 92 161 51 240 -24 48 -79 95 -129
110 -28 8 -360 11 -1208 11 l-1169 0 -53 -26 c-58 -29 -106 -91 -117 -151 -19
-104 64 -213 162 -213 44 0 74 24 74 59 0 21 -40 61 -61 61 -51 0 -66 75 -23
115 35 32 111 35 159 5 90 -56 83 -220 -11 -299 -105 -86 -265 -64 -368 50
-173 192 -41 503 232 549 67 11 2283 12 2361 0z"/>
<path d="M1889 2666 c-55 -20 -97 -54 -119 -96 -19 -38 -20 -62 -20 -715 l0
-675 60 0 60 0 0 663 0 664 23 21 c32 30 87 29 115 -1 l22 -23 0 -662 0 -662
65 0 66 0 -3 673 c-3 669 -3 672 -25 713 -26 49 -75 88 -128 103 -50 14 -71
13 -116 -3z"/>
<path d="M2436 2665 c-47 -16 -103 -69 -122 -112 -11 -26 -14 -155 -14 -703
l0 -670 60 0 60 0 0 660 0 661 25 24 c33 34 83 34 116 -1 l24 -26 3 -659 2
-659 60 0 61 0 -3 673 -3 672 -22 42 c-25 47 -71 84 -122 102 -44 14 -77 13
-125 -4z"/>
<path d="M2985 2664 c-50 -18 -92 -58 -116 -109 -17 -38 -19 -79 -19 -707 l0
-668 60 0 60 0 0 651 c0 668 0 676 39 706 17 13 60 17 86 7 44 -17 45 -25 45
-714 l0 -650 60 0 60 0 0 668 c0 628 -2 669 -19 707 -24 52 -66 91 -120 110
-53 18 -84 18 -136 -1z"/>
</g>
</svg>
