<?xml version="1.0" standalone="no"?>
<!DOCTYPE svg PUBLIC "-//W3C//DTD SVG 20010904//EN"
 "http://www.w3.org/TR/2001/REC-SVG-20010904/DTD/svg10.dtd">
<svg version="1.0" xmlns="http://www.w3.org/2000/svg"
 width="500.000000pt" height="500.000000pt" viewBox="0 0 500.000000 500.000000"
 preserveAspectRatio="xMidYMid meet">

<g transform="translate(0.000000,500.000000) scale(0.100000,-0.100000)"
fill="#ffffff" stroke="none">
<path d="M930 3925 c0 -48 3 -57 23 -64 38 -15 83 -87 126 -202 12 -30 34 -68
50 -83 27 -26 34 -28 115 -27 47 0 86 -3 86 -7 0 -4 -27 -22 -59 -41 -114 -65
-208 -183 -246 -308 -22 -72 -19 -197 6 -273 40 -123 109 -204 221 -262 59
-31 69 -33 172 -34 l110 -1 17 -51 c10 -28 19 -71 21 -94 3 -38 1 -43 -20 -46
-13 -2 -38 -19 -57 -38 -63 -62 -57 -144 15 -224 51 -57 109 -173 112 -225 3
-39 3 -40 -37 -45 -84 -12 -129 -63 -129 -145 0 -87 43 -139 127 -153 l42 -8
3 -337 2 -337 50 0 50 0 0 340 0 341 793 -3 792 -3 0 -155 c0 -85 1 -237 3
-337 l2 -183 50 0 50 0 0 340 0 340 34 0 c66 0 136 76 136 148 0 80 -64 152
-135 152 l-38 0 7 52 c9 66 43 134 104 209 61 75 76 119 60 171 -12 41 -69 98
-99 98 -8 0 -18 3 -21 6 -6 5 14 102 32 159 l10 31 113 0 c102 0 117 3 172 28
70 34 161 122 191 186 39 83 45 102 51 179 11 159 -41 295 -155 402 -37 35
-89 75 -115 89 -26 14 -47 28 -47 32 0 5 40 8 88 8 83 0 90 2 114 28 14 15 31
43 38 62 31 86 96 196 127 215 30 18 32 24 33 73 l0 52 -1595 0 -1595 0 0 -55z
m2910 -52 l117 -6 -39 -81 c-21 -45 -45 -92 -53 -106 l-14 -25 -1328 0 -1328
0 -51 105 c-28 58 -49 108 -47 113 5 9 2575 9 2743 0z m-780 -333 c0 -4 -15
-11 -32 -15 -232 -50 -272 -56 -433 -62 -107 -3 -209 -1 -275 6 -121 14 -320
58 -320 72 0 5 214 9 530 8 292 -1 530 -5 530 -9z m-1287 -65 c51 -8 126 -24
167 -35 405 -111 706 -112 1144 -6 297 72 443 71 603 -4 171 -80 261 -219 251
-391 -10 -184 -142 -319 -313 -319 -109 0 -195 50 -252 147 -23 40 -28 59 -28
123 0 67 3 82 28 118 36 55 90 82 164 82 72 0 114 -24 143 -79 25 -51 25 -87
0 -129 -36 -58 -110 -66 -150 -15 -40 51 -11 113 53 113 30 1 31 1 13 15 -27
20 -86 19 -112 -3 -27 -21 -54 -73 -54 -103 0 -38 38 -103 74 -127 42 -29 136
-33 182 -9 65 34 114 115 114 188 0 90 -70 199 -155 242 -125 62 -278 60 -545
-7 -233 -59 -387 -76 -635 -71 -186 4 -275 15 -470 61 -60 14 -141 32 -180 41
-100 24 -274 23 -346 0 -76 -25 -146 -81 -182 -145 -24 -43 -29 -65 -29 -116
0 -65 8 -88 49 -144 34 -45 78 -65 144 -65 103 0 163 57 164 156 0 54 -3 61
-33 88 -37 33 -100 40 -122 14 -11 -13 -8 -15 18 -15 39 0 62 -23 62 -63 0
-70 -68 -107 -128 -71 -38 22 -52 52 -52 109 0 77 68 135 159 135 85 0 135
-30 172 -102 26 -52 25 -144 -2 -203 -27 -58 -114 -136 -167 -152 -145 -44
-299 22 -373 160 -32 59 -34 67 -34 167 0 94 3 111 28 163 16 33 53 83 85 115
129 128 313 174 545 137z m60 -276 c50 -13 131 -111 192 -233 50 -101 116
-319 116 -381 -2 -114 -9 -159 -27 -172 -27 -20 -31 -16 -37 25 -8 66 -65 315
-86 375 -38 110 -89 193 -169 278 -49 52 -102 118 -102 126 0 5 62 -6 113 -18z
m1497 11 c0 -5 -31 -43 -68 -82 -155 -165 -214 -273 -251 -458 -6 -30 -20 -95
-31 -143 -11 -49 -20 -99 -20 -113 0 -29 -3 -30 -34 -3 -20 17 -23 28 -19 54
3 18 0 49 -6 68 -10 30 -8 52 18 155 73 293 194 486 323 517 67 17 88 18 88 5z
m-1247 -70 c64 -13 70 -20 113 -139 31 -84 34 -206 7 -227 -26 -19 -43 -17
-43 5 0 11 -14 61 -30 113 -27 82 -73 171 -127 247 -17 23 -16 23 2 18 11 -3
46 -11 78 -17z m967 15 c0 -3 -15 -26 -34 -52 -51 -71 -90 -158 -116 -253 -13
-47 -26 -88 -29 -92 -4 -4 -17 -1 -30 8 -21 15 -23 22 -19 103 3 69 10 101 36
161 18 41 36 81 40 87 4 7 37 19 72 26 83 18 80 18 80 12z m-240 -118 c-29
-64 -32 -67 -58 -61 -39 10 -39 10 -46 53 -3 22 -9 46 -12 54 -4 12 9 17 68
24 40 4 74 6 76 2 1 -3 -11 -35 -28 -72z m-464 60 c2 -1 -5 -28 -14 -59 -14
-49 -21 -57 -46 -62 -16 -4 -30 -5 -31 -4 0 2 -13 34 -28 72 l-26 69 71 -7
c40 -4 73 -8 74 -9z m236 -14 c35 -39 52 -109 44 -184 l-7 -61 41 33 c33 26
45 31 58 23 38 -24 19 -105 -43 -189 -32 -43 -62 -104 -69 -145 l-7 -35 21 39
c29 52 103 124 136 132 33 8 58 -6 62 -34 2 -15 -16 -42 -57 -86 -34 -36 -61
-68 -61 -71 0 -3 13 1 30 10 52 27 90 14 90 -31 0 -16 -16 -33 -57 -61 -57
-37 -91 -85 -93 -128 0 -11 -13 -33 -30 -48 -50 -47 -42 -99 28 -185 40 -49
54 -49 25 1 -28 47 -45 101 -37 120 8 21 42 22 64 2 16 -15 18 -12 22 32 6 60
25 100 60 126 46 34 98 1 98 -64 0 -16 4 -19 20 -14 50 16 65 -47 29 -125 -12
-25 -25 -55 -30 -68 -9 -22 -8 -22 13 -8 28 20 68 21 68 2 0 -8 -13 -43 -30
-78 -16 -34 -30 -69 -30 -76 0 -10 -15 -12 -57 -10 l-58 3 3 95 c1 52 5 124 7
160 11 133 -36 -33 -53 -190 l-7 -65 -94 -3 c-58 -2 -98 1 -105 8 -7 7 -15
157 -23 428 -12 430 -23 675 -30 668 -12 -11 -32 -403 -39 -729 -8 -425 8
-380 -133 -375 l-85 3 -17 120 c-29 195 -39 203 -36 30 l2 -150 -53 -3 c-49
-3 -53 -1 -63 25 -5 15 -21 50 -35 77 -14 26 -23 54 -20 62 7 19 50 18 66 -1
24 -29 20 -8 -10 56 -45 95 -36 161 20 146 15 -4 20 0 20 13 0 34 23 70 48 77
50 12 110 -71 111 -156 1 -32 2 -33 19 -18 10 10 28 17 40 17 18 0 22 -6 22
-32 0 -18 -11 -57 -25 -85 -27 -60 -20 -69 17 -20 66 85 73 133 28 179 -16 16
-30 39 -30 50 0 39 -48 105 -100 137 -37 23 -50 37 -50 55 0 38 25 52 71 39
21 -6 39 -8 39 -5 0 2 -25 31 -55 64 -62 66 -72 103 -31 114 50 12 129 -50
180 -141 l17 -30 -6 35 c-6 33 -18 55 -95 178 -26 40 -34 65 -34 100 -1 42 2
47 22 50 13 2 37 -7 56 -22 l33 -25 -5 75 c-5 84 14 153 51 179 35 25 89 19
119 -12z m-708 -106 c28 -44 66 -139 66 -169 0 -21 -36 -3 -81 41 l-49 48 0
78 c0 89 5 89 64 2z m1315 -125 c-59 -64 -86 -74 -81 -28 6 46 49 135 90 185
l37 46 3 -73 3 -73 -52 -57z m-1378 -79 c37 -39 52 -71 65 -133 l7 -34 16 34
c12 26 22 35 41 35 23 0 25 -4 28 -46 2 -30 -6 -71 -22 -117 l-24 -70 29 17
c22 12 33 13 46 5 24 -15 20 -49 -11 -118 -30 -66 -33 -109 -10 -166 13 -31
14 -44 5 -53 -22 -22 -12 -62 24 -97 36 -35 61 -90 51 -115 -7 -19 -125 -21
-130 -2 -2 6 -11 82 -20 167 -17 172 -64 378 -115 505 -51 126 -54 111 -10
-45 49 -175 69 -303 76 -472 6 -166 6 -168 -15 -168 -17 0 -22 8 -27 48 -15
106 -76 224 -140 266 -22 15 -21 11 11 -31 46 -60 80 -131 95 -198 14 -63 8
-85 -24 -85 -21 0 -25 8 -41 75 -22 95 -63 176 -121 242 -48 54 -61 105 -29
117 52 20 115 -8 181 -82 37 -41 43 -44 43 -25 0 40 -39 126 -74 162 -25 27
-36 48 -41 86 -4 27 -15 76 -26 110 -10 33 -19 67 -19 75 0 8 19 28 41 44 22
15 52 46 66 67 14 21 29 39 32 39 4 0 23 -17 42 -37z m1488 20 c10 -20 75 -85
105 -106 18 -13 18 -15 -3 -83 -12 -39 -26 -97 -31 -129 -8 -46 -16 -66 -38
-85 -38 -33 -61 -79 -68 -137 l-6 -48 22 32 c23 34 100 90 137 99 55 14 97
-22 74 -65 -6 -10 -31 -43 -56 -72 -59 -70 -92 -138 -108 -225 -12 -64 -15
-69 -40 -72 -36 -4 -43 18 -27 82 15 61 50 133 97 201 l34 50 -52 -55 c-61
-64 -100 -143 -107 -215 -5 -50 -14 -65 -41 -65 -12 0 -13 25 -8 155 4 85 11
174 16 197 5 24 15 70 21 103 6 33 27 118 46 189 20 70 33 130 31 132 -11 11
-84 -195 -116 -326 -26 -104 -31 -135 -50 -300 l-17 -145 -62 -3 -62 -3 0 38
c0 30 9 48 40 83 41 47 47 68 30 101 -8 14 -7 31 5 64 20 62 19 98 -6 148 -31
60 -40 97 -28 118 13 25 51 24 74 -1 28 -31 28 -18 -1 45 -34 73 -39 161 -11
179 16 9 23 6 48 -24 l29 -34 0 27 c0 39 37 113 72 142 35 30 44 31 57 8z
m169 -999 c24 -17 30 -62 10 -82 -9 -9 -235 -12 -954 -12 -844 0 -944 2 -958
16 -22 21 -20 50 4 74 20 20 33 20 948 20 823 0 930 -2 950 -16z"/>
<path d="M1972 1524 c-39 -20 -74 -64 -91 -113 -7 -21 -11 -118 -11 -262 l0
-229 49 0 50 0 3 241 c3 239 3 241 27 260 35 28 85 25 110 -7 20 -25 21 -39
21 -260 l0 -234 50 0 50 0 0 243 c0 272 -3 285 -73 341 -47 37 -132 47 -185
20z"/>
<path d="M2445 1526 c-39 -18 -70 -52 -90 -98 -12 -30 -15 -83 -15 -273 l0
-235 49 0 50 0 3 241 c3 239 3 241 27 260 31 26 73 24 99 -4 21 -22 22 -33 24
-257 l3 -235 54 -3 53 -3 -4 243 c-4 272 -9 295 -75 345 -42 32 -130 42 -178
19z"/>
<path d="M2910 1529 c-38 -16 -71 -50 -91 -97 -17 -39 -19 -71 -19 -278 l0
-234 50 0 50 0 0 225 c0 274 6 295 89 295 16 0 37 -10 49 -23 21 -23 22 -31
22 -260 l0 -237 56 0 56 0 -4 238 c-4 250 -8 276 -55 329 -41 46 -140 67 -203
42z"/>
</g>
</svg>
